<svg id="Layer_1" enable-background="new 0 0 72 72" height="512" viewBox="0 0 72 72" width="512" xmlns="http://www.w3.org/2000/svg"><g id="_x39_"><g><path d="m39.58 14.29h1.25v1.25c0 .41.34.75.75.75s.75-.34.75-.75v-1.25h1.25c.41 0 .75-.34.75-.75s-.34-.75-.75-.75h-1.25v-1.25c0-.41-.34-.75-.75-.75s-.75.34-.75.75v1.25h-1.25c-.41 0-.75.34-.75.75s.34.75.75.75z"/><path d="m30.4 60.59c-1.35 0-2.44-1.1-2.44-2.44 0-.41-.34-.75-.75-.75s-.75.34-.75.75c0 1.35-1.1 2.44-2.45 2.44-.41 0-.75.34-.75.75s.34.75.75.75c1.35 0 2.45 1.1 2.45 2.44 0 .41.34.75.75.75s.75-.34.75-.75c0-1.35 1.1-2.44 2.44-2.44.41 0 .75-.34.75-.75s-.34-.75-.75-.75zm-3.2 1.63c-.25-.34-.54-.64-.88-.88.34-.25.64-.54.88-.88.25.34.54.64.88.88-.33.24-.63.54-.88.88z"/><path d="m49.85 42.29c1.14-.16 2.14-.76 2.83-1.68s.97-2.05.81-3.19c-.08-.57-.28-1.11-.57-1.6-.06-1.24-.65-7.17-6.44-13.25-2.79-2.95-6.5-4.81-11.01-5.53-.4-.07-.79.21-.86.62s.21.79.62.86c4.18.67 7.6 2.38 10.17 5.09 3.99 4.19 5.34 8.32 5.79 10.61-.79-.41-1.67-.57-2.57-.44-1.14.16-2.14.76-2.83 1.68 0 0-.01.01-.01.02-.72-2.1-2.01-4.76-4.29-7.17-3.72-3.89-9.43-4.5-12.51-4.52-.11 0-.15 0-.25.04-.23.05-1.37.06-2.27.09-.92-.36-1.6-1.22-1.74-2.21-.22-1.52.85-2.94 2.42-3.17.02 0 2.04-.41 4.84-.33.4.03.76-.32.77-.73s-.32-.76-.73-.77c-3-.08-5.1.35-5.14.36-2.35.34-3.98 2.52-3.64 4.86.2 1.34 1 2.47 2.13 3.12l-6.44 16.14c-.15.38.03.82.42.97.09.04.19.05.28.05.3 0 .58-.18.7-.47l6.51-16.32c1.39-.01 1.98-.07 2.24-.13 2.86.03 8.04.61 11.33 4.06 2.48 2.61 3.69 5.61 4.27 7.65l-1.89 1.04c-.03.02-.05.04-.08.06-.04.03-.08.06-.12.1-.03.04-.05.08-.08.12-.02.04-.05.08-.07.13s-.02.1-.03.15c0 .03-.02.06-.02.1v5.8c0 .37-.3.67-.67.67s-.66-.3-.66-.67v-4.25c0-.01-.01-.02-.01-.04 0-.05-.02-.1-.03-.15s-.02-.1-.04-.14c-.01-.01 0-.02-.01-.04-.02-.03-.04-.05-.06-.08-.03-.04-.06-.08-.1-.12-.04-.03-.08-.05-.12-.08-.04-.02-.08-.05-.13-.06-.05-.02-.1-.02-.16-.03-.03 0-.06-.02-.09-.02-.01 0-.02.01-.04.01-.05 0-.1.02-.15.03s-.09.02-.14.04c-.01.01-.02.01-.04.01l-6.3 3.47c-.03.02-.05.04-.08.06-.04.03-.08.06-.12.1-.03.04-.06.08-.08.12s-.05.08-.06.13c-.02.05-.02.1-.03.15 0 .03-.02.06-.02.1v9.58c0 .94-.77 1.71-1.72 1.71-.94 0-1.71-.77-1.71-1.71v-6.87c0-.01-.01-.02-.01-.04 0-.05-.02-.1-.03-.15s-.02-.1-.04-.14c-.01-.01-.01-.02-.01-.04-.02-.03-.04-.05-.06-.08-.03-.04-.06-.08-.1-.12-.04-.03-.08-.06-.12-.08s-.08-.05-.12-.06c-.05-.02-.1-.02-.16-.03-.03 0-.06-.02-.09-.02-.01 0-.02.01-.04.01-.05 0-.1.02-.15.03s-.1.02-.14.04c-.01.01-.02.01-.04.01l-12.8 7.03 3.4-8.5c.15-.38-.03-.82-.42-.97s-.82.03-.97.42l-4.17 10.44c-.01.01 0 .03-.01.04-.01.04-.02.09-.03.13-.01.05-.01.09-.01.14s.02.1.03.15c.01.03.01.06.02.09l1.68 4.35c.08.2.24.36.44.44.08.03.17.04.25.04.13 0 .25-.03.37-.09l11.84-6.6v.43c0 1.77 1.44 3.21 3.22 3.21 1.77 0 3.21-1.44 3.21-3.21v-4.01l5.59-3.12c.38.31.85.51 1.38.51 1.19 0 2.16-.98 2.16-2.17v-.31l3.83-2.13c.48.18.99.29 1.51.29.21-.01.41-.03.62-.06zm-21.53 8.85-11.81 6.59-1.13-2.93 12.94-7.11zm6.44-3.58v-3.4l4.8-2.64v2.98c0 .13.02.25.04.37zm9.13-5.09v-3.33l1.09-.6c0 .04 0 .08.01.12.05.33.14.64.26.94.01.02.02.04.03.06.23.56.57 1.06 1.02 1.48zm3.67-2.19c-.41-.31-.72-.72-.91-1.19-.02-.2-.09-.63-.21-1.21.03-.54.22-1.06.55-1.51.45-.6 1.1-.99 1.84-1.09.14-.02.27-.03.41-.03.6 0 1.18.19 1.67.56.6.45.99 1.1 1.09 1.84.11.74-.08 1.48-.53 2.07-.45.6-1.1.99-1.84 1.09-.73.11-1.47-.08-2.07-.53z"/><path d="m34.17 33.57c-.33-.25-.8-.19-1.05.13-.53.68-.81 1.5-.81 2.37 0 2.15 1.75 3.9 3.9 3.9s3.9-1.75 3.9-3.9c0-1.93-1.38-3.55-3.27-3.85-.41-.07-.79.21-.86.62s.21.79.62.86c1.16.19 2.01 1.18 2.01 2.37 0 1.32-1.08 2.4-2.4 2.4s-2.4-1.08-2.4-2.4c0-.53.17-1.03.49-1.45.26-.33.2-.8-.13-1.05z"/><path d="m24.24 37.55-1.38 2.33c-.14.23-.14.52-.01.75.08.15.89 1.48 3.26 2.63 1.31.64 2.24.81 2.85.81.5 0 .79-.11.92-.18.12-.06.23-.16.3-.28l1.37-2.31c.13-.22.14-.49.02-.72s-.34-.38-.6-.41c-.02 0-2.04-.2-3.14-.74-1.09-.54-2.36-1.98-2.37-2-.16-.18-.39-.28-.63-.25-.25.03-.46.16-.59.37zm2.92 3.22c.74.37 1.75.6 2.52.73l-.63 1.06c-.31.02-1.03-.04-2.28-.65-1.3-.63-2.02-1.31-2.36-1.7l.63-1.05c.54.53 1.34 1.23 2.12 1.61z"/><path d="m25.36 33.25c.08.03 1.02.34 2.23.34 1.28 0 2.85-.35 4.04-1.76.74-.87.75-1.71.62-2.25-.44-1.95-3.19-3.25-3.5-3.39-.37-.17-.8-.02-.98.35l-2.84 5.67c-.1.19-.11.42-.02.62.08.2.25.35.45.42zm3.41-5.36c.78.46 1.84 1.24 2.02 2.02.05.2.06.52-.3.96-1.11 1.32-2.78 1.32-3.78 1.16z"/><path d="m54.92 43.95c-.4-.1-.81.14-.91.54-.01.04-1.04 3.96-4.34 5.24-.39.15-.58.58-.43.97.12.3.4.48.7.48.09 0 .18-.02.27-.05 4.04-1.57 5.21-6.08 5.26-6.27.1-.4-.14-.8-.55-.91z"/><path d="m58.99 50.57c-.37-.17-.82-.01-1 .37-.9 1.95-2.28 3.11-4.11 3.45-.41.08-.68.47-.6.87.07.36.38.61.74.61.04 0 .09 0 .14-.01 2.33-.43 4.08-1.88 5.2-4.29.17-.38 0-.83-.37-1z"/><path d="m60.53 45.9c-.01-.41-.34-.73-.75-.73h-.01c-.41.01-.74.35-.74.76 0 .01.01 1-.23 2.3-.08.41.19.8.6.87.05.01.09.01.14.01.35 0 .67-.25.74-.61.27-1.46.25-2.56.25-2.6z"/><path d="m17.09 19.65c-.13.39.08.82.47.95.08.03.16.04.24.04.31 0 .6-.2.71-.51.01-.04 1.36-3.86 4.75-4.88.4-.12.62-.54.5-.93-.12-.4-.53-.62-.93-.5-4.15 1.24-5.68 5.65-5.74 5.83z"/><path d="m16.33 11.49c.16 0 .33-.05.46-.16.76-.6 1.62-.94 2.63-1.04.41-.04.71-.41.67-.82s-.41-.71-.82-.67c-1.28.13-2.43.58-3.41 1.36-.33.26-.38.73-.12 1.05.15.18.37.28.59.28z"/><path d="m14.92 12.18c-.36-.21-.82-.1-1.03.26-1.55 2.61-1.77 5.65-1.77 5.78-.03.41.29.77.7.8h.05c.39 0 .72-.3.75-.7 0-.03.2-2.82 1.57-5.1.21-.37.09-.83-.27-1.04z"/></g></g></svg>