<svg height="512" viewBox="0 0 58 58" width="512" xmlns="http://www.w3.org/2000/svg"><g id="Page-1" fill="none" fill-rule="evenodd"><g id="041---Pizza" transform="translate(0 -1)"><path id="Path" d="m58 30c-.0031329 14.7281807-11.0477656 27.1140104-25.6793873 28.7977452s-28.20091041-7.8696463-31.5493535-22.2121442 4.58795567-28.91666209 18.45257-33.88574507c13.8646144-4.96908297 29.2518454 1.24588358 35.7761708 14.45014407 1.9791192 3.9941127 3.0059668 8.3924431 3 12.85z" fill="#f9eab0"/><path id="Path" d="m53 29.194c-.0770483 3.1789268-.7740906 6.3122205-2.052 9.224-1.209 2.926-2.436 6.19-4.633 8.4-2.397612 2.173049-5.1869088 3.8699079-8.219 5-2.9422601 1.3223149-6.1124446 2.0632471-9.336 2.182-3.3490154-.0574163-6.6583267-.7355539-9.76-2-2.915-1.213-4.754-3.829-6.951-6.034s-4.9-4.357-6.114-7.283c-1.166-2.823-.912-6.243-.912-9.489s1.493-5.94 2.659-8.763c1.209-2.926 1.609-6.368 3.806-8.573s5.306-3.382 8.222-4.6c2.812-1.171 5.816-1.1 9.05-1.1s6.463-.61 9.276.56c2.915 1.214 5.084 3.653 7.281 5.858s3.474 5.498 4.683 8.424c1.166 2.823 3 4.948 3 8.194z" fill="#f0c419"/><path id="Path" d="m55 6v11.15c-2.8192622-5.7092317-7.4407683-10.33073778-13.15-13.15h11.15c1.1032019.0032948 1.9967052.89679813 2 2z" fill="#cb8252"/><path id="Path" d="m16.15 56h-11.15c-1.10320187-.0032948-1.9967052-.8967981-2-2v-11.15c2.81926222 5.7092317 7.4407683 10.3307378 13.15 13.15z" fill="#cb8252"/><path id="Path" d="m16.15 4c-5.7092317 2.81926222-10.33073778 7.4407683-13.15 13.15v-11.15c.0032948-1.10320187.89679813-1.9967052 2-2z" fill="#cb8252"/><path id="Path" d="m55 42.85v11.15c-.0032948 1.1032019-.8967981 1.9967052-2 2h-11.15c5.7092317-2.8192622 10.3307378-7.4407683 13.15-13.15z" fill="#cb8252"/><g fill="#cc4b4c"><circle id="Oval" cx="35" cy="15" r="3"/><circle id="Oval" cx="37" cy="44" r="3"/><circle id="Oval" cx="44" cy="25" r="3"/><circle id="Oval" cx="14" cy="23" r="3"/><circle id="Oval" cx="24" cy="31" r="3"/><circle id="Oval" cx="22" cy="45" r="3"/><circle id="Oval" cx="15" cy="37" r="2"/><circle id="Oval" cx="23" cy="14" r="2"/><circle id="Oval" cx="32" cy="24" r="2"/><circle id="Oval" cx="37" cy="34" r="2"/></g><circle id="Oval" cx="45" cy="38" fill="#e57e25" r="1"/><circle id="Oval" cx="48" cy="32" fill="#e57e25" r="1"/><circle id="Oval" cx="23" cy="22" fill="#e57e25" r="1"/><circle id="Oval" cx="28" cy="10" fill="#e57e25" r="1"/><circle id="Oval" cx="11" cy="31" fill="#e57e25" r="1"/><circle id="Oval" cx="43" cy="17" fill="#e57e25" r="1"/><circle id="Oval" cx="30" cy="39" fill="#e57e25" r="1"/><circle id="Oval" cx="27" cy="50" fill="#e57e25" r="1"/></g></g></svg>